<?xml version="1.0" encoding="UTF-8"?>
<svg width="700pt" height="700pt" version="1.1" viewBox="0 0 700 700" xmlns="http://www.w3.org/2000/svg" xmlns:xlink="http://www.w3.org/1999/xlink">
 <defs>
  <symbol id="m" overflow="visible">
   <path d="m29.312-1.75c-1.5117 0.78125-3.0898 1.3711-4.7344 1.7656-1.6367 0.40625-3.3398 0.60938-5.1094 0.60938-5.3125 0-9.5273-1.4844-12.641-4.4531-3.1055-2.9688-4.6562-7-4.6562-12.094s1.5508-9.125 4.6562-12.094c3.1133-2.9688 7.3281-4.4531 12.641-4.4531 1.7695 0 3.4727 0.19922 5.1094 0.59375 1.6445 0.39844 3.2227 0.99219 4.7344 1.7812v6.5938c-1.5312-1.0391-3.0391-1.8008-4.5156-2.2812-1.4805-0.48828-3.0391-0.73438-4.6719-0.73438-2.9375 0-5.2461 0.94531-6.9219 2.8281-1.6797 1.875-2.5156 4.4648-2.5156 7.7656 0 3.293 0.83594 5.8828 2.5156 7.7656 1.6758 1.875 3.9844 2.8125 6.9219 2.8125 1.6328 0 3.1914-0.23828 4.6719-0.71875 1.4766-0.48828 2.9844-1.2539 4.5156-2.2969z"/>
  </symbol>
  <symbol id="i" overflow="visible">
   <path d="m21.453-17.406c-0.67969-0.3125-1.3516-0.53906-2.0156-0.6875-0.65625-0.15625-1.3203-0.23438-1.9844-0.23438-1.9688 0-3.4844 0.63281-4.5469 1.8906-1.0547 1.2617-1.5781 3.0703-1.5781 5.4219v11.016h-7.6562v-23.922h7.6562v3.9219c0.97656-1.5625 2.1016-2.7031 3.375-3.4219 1.2812-0.71875 2.8125-1.0781 4.5938-1.0781 0.25 0 0.52344 0.011719 0.82812 0.03125 0.30078 0.023438 0.73438 0.070312 1.2969 0.14062z"/>
  </symbol>
  <symbol id="a" overflow="visible">
   <path d="m27.562-12.031v2.1875h-17.891c0.1875 1.793 0.83203 3.1367 1.9375 4.0312 1.1133 0.89844 2.6719 1.3438 4.6719 1.3438 1.6016 0 3.25-0.23438 4.9375-0.70312 1.6875-0.47656 3.4219-1.2031 5.2031-2.1719v5.8906c-1.8047 0.6875-3.6094 1.2031-5.4219 1.5469-1.8125 0.35156-3.6211 0.53125-5.4219 0.53125-4.3359 0-7.7031-1.0977-10.109-3.2969-2.3984-2.207-3.5938-5.2969-3.5938-9.2656 0-3.9062 1.1758-6.9727 3.5312-9.2031 2.3633-2.2383 5.6094-3.3594 9.7344-3.3594 3.7578 0 6.7695 1.1367 9.0312 3.4062 2.2578 2.2617 3.3906 5.2812 3.3906 9.0625zm-7.8594-2.5312c0-1.457-0.42969-2.6289-1.2812-3.5156-0.84375-0.89453-1.9492-1.3438-3.3125-1.3438-1.4922 0-2.6992 0.41797-3.625 1.25-0.91797 0.83594-1.4922 2.0391-1.7188 3.6094z"/>
  </symbol>
  <symbol id="h" overflow="visible">
   <path d="m14.391-10.766c-1.5938 0-2.793 0.27344-3.5938 0.8125-0.80469 0.54297-1.2031 1.3398-1.2031 2.3906 0 0.96875 0.32031 1.7305 0.96875 2.2812 0.64453 0.54297 1.5469 0.8125 2.7031 0.8125 1.4375 0 2.6445-0.51562 3.625-1.5469 0.98828-1.0312 1.4844-2.3203 1.4844-3.875v-0.875zm11.688-2.8906v13.656h-7.7031v-3.5469c-1.0312 1.4492-2.1875 2.5078-3.4688 3.1719s-2.8398 1-4.6719 1c-2.4805 0-4.4961-0.72266-6.0469-2.1719-1.543-1.4453-2.3125-3.3203-2.3125-5.625 0-2.8125 0.96094-4.8672 2.8906-6.1719 1.9375-1.3125 4.9688-1.9688 9.0938-1.9688h4.5156v-0.60938c0-1.207-0.48047-2.0938-1.4375-2.6562-0.94922-0.5625-2.4375-0.84375-4.4688-0.84375-1.6367 0-3.1562 0.16797-4.5625 0.5-1.4062 0.32422-2.7188 0.8125-3.9375 1.4688v-5.8281c1.6445-0.40625 3.2891-0.70703 4.9375-0.90625 1.6562-0.20703 3.3047-0.3125 4.9531-0.3125 4.3203 0 7.4375 0.85547 9.3438 2.5625 1.9141 1.6992 2.875 4.4609 2.875 8.2812z"/>
  </symbol>
  <symbol id="g" overflow="visible">
   <path d="m12.031-30.719v6.7969h7.875v5.4688h-7.875v10.141c0 1.1172 0.21875 1.8711 0.65625 2.2656 0.4375 0.38672 1.3125 0.57812 2.625 0.57812h3.9375v5.4688h-6.5625c-3.0234 0-5.1641-0.62891-6.4219-1.8906-1.2617-1.2578-1.8906-3.3984-1.8906-6.4219v-10.141h-3.7969v-5.4688h3.7969v-6.7969z"/>
  </symbol>
  <symbol id="f" overflow="visible">
   <path d="m19.953-20.422v-12.812h7.6875v33.234h-7.6875v-3.4531c-1.0547 1.4062-2.2148 2.4375-3.4844 3.0938-1.2734 0.65625-2.7422 0.98438-4.4062 0.98438-2.9492 0-5.3711-1.1719-7.2656-3.5156-1.8867-2.3438-2.8281-5.3594-2.8281-9.0469s0.94141-6.7031 2.8281-9.0469c1.8945-2.3438 4.3164-3.5156 7.2656-3.5156 1.6562 0 3.1172 0.33594 4.3906 1 1.2812 0.65625 2.4453 1.6836 3.5 3.0781zm-5.0469 15.484c1.6445 0 2.8945-0.59766 3.75-1.7969 0.86328-1.1953 1.2969-2.9297 1.2969-5.2031 0-2.2812-0.43359-4.0195-1.2969-5.2188-0.85547-1.1953-2.1055-1.7969-3.75-1.7969-1.625 0-2.8711 0.60156-3.7344 1.7969-0.85547 1.1992-1.2812 2.9375-1.2812 5.2188 0 2.2734 0.42578 4.0078 1.2812 5.2031 0.86328 1.1992 2.1094 1.7969 3.7344 1.7969z"/>
  </symbol>
  <symbol id="e" overflow="visible">
   <path d="m16.406-4.9375c1.6328 0 2.8828-0.59766 3.75-1.7969 0.86328-1.1953 1.2969-2.9297 1.2969-5.2031 0-2.2812-0.43359-4.0195-1.2969-5.2188-0.86719-1.1953-2.1172-1.7969-3.75-1.7969-1.6367 0-2.8906 0.60547-3.7656 1.8125-0.875 1.1992-1.3125 2.9336-1.3125 5.2031 0 2.2617 0.4375 3.9961 1.3125 5.2031 0.875 1.1992 2.1289 1.7969 3.7656 1.7969zm-5.0781-15.484c1.0508-1.3945 2.2188-2.4219 3.5-3.0781 1.2812-0.66406 2.7539-1 4.4219-1 2.9453 0 5.3672 1.1719 7.2656 3.5156 1.8945 2.3438 2.8438 5.3594 2.8438 9.0469s-0.94922 6.7031-2.8438 9.0469c-1.8984 2.3438-4.3203 3.5156-7.2656 3.5156-1.668 0-3.1406-0.33594-4.4219-1s-2.4492-1.6914-3.5-3.0781v3.4531h-7.6562v-33.234h7.6562z"/>
  </symbol>
  <symbol id="d" overflow="visible">
   <path d="m0.53125-23.922h7.6562l6.4219 16.234 5.4688-16.234h7.6562l-10.062 26.188c-1.0117 2.6641-2.1953 4.5234-3.5469 5.5781-1.3438 1.0625-3.1211 1.5938-5.3281 1.5938h-4.4219v-5.0156h2.3906c1.3008 0 2.2422-0.21094 2.8281-0.625 0.59375-0.40625 1.0547-1.1484 1.3906-2.2188l0.20312-0.65625z"/>
  </symbol>
  <symbol id="c" overflow="visible">
   <path d="m25.844-19.953c0.96875-1.4766 2.1172-2.6016 3.4531-3.375 1.332-0.78125 2.7969-1.1719 4.3906-1.1719 2.75 0 4.8438 0.85156 6.2812 2.5469 1.4375 1.6875 2.1562 4.1523 2.1562 7.3906v14.562h-7.6875v-12.469c0.007812-0.1875 0.019531-0.37891 0.03125-0.57812 0.007812-0.19531 0.015625-0.48438 0.015625-0.85938 0-1.6953-0.25-2.9258-0.75-3.6875-0.5-0.75781-1.3086-1.1406-2.4219-1.1406-1.4492 0-2.5703 0.60156-3.3594 1.7969-0.79297 1.1992-1.2031 2.9297-1.2344 5.1875v11.75h-7.6875v-12.469c0-2.6562-0.23047-4.3633-0.6875-5.125-0.44922-0.75781-1.2578-1.1406-2.4219-1.1406-1.4688 0-2.6055 0.60547-3.4062 1.8125-0.79297 1.1992-1.1875 2.918-1.1875 5.1562v11.766h-7.7031v-23.922h7.7031v3.5c0.9375-1.3516 2.0156-2.3672 3.2344-3.0469 1.2188-0.6875 2.5547-1.0312 4.0156-1.0312 1.6562 0 3.1133 0.40234 4.375 1.2031 1.2695 0.79297 2.2344 1.9062 2.8906 3.3438z"/>
  </symbol>
  <symbol id="l" overflow="visible">
   <path d="m15.062-19.031c-1.6992 0-2.9961 0.60938-3.8906 1.8281-0.88672 1.2188-1.3281 2.9766-1.3281 5.2656 0 2.293 0.44141 4.0469 1.3281 5.2656 0.89453 1.2188 2.1914 1.8281 3.8906 1.8281 1.6641 0 2.9375-0.60938 3.8125-1.8281 0.88281-1.2188 1.3281-2.9727 1.3281-5.2656 0-2.2891-0.44531-4.0469-1.3281-5.2656-0.875-1.2188-2.1484-1.8281-3.8125-1.8281zm0-5.4688c4.1133 0 7.3281 1.1094 9.6406 3.3281s3.4688 5.2969 3.4688 9.2344c0 3.9297-1.1562 7.0078-3.4688 9.2344-2.3125 2.2188-5.5273 3.3281-9.6406 3.3281-4.1367 0-7.3711-1.1094-9.7031-3.3281-2.3242-2.2266-3.4844-5.3047-3.4844-9.2344 0-3.9375 1.1602-7.0156 3.4844-9.2344 2.332-2.2188 5.5664-3.3281 9.7031-3.3281z"/>
  </symbol>
  <symbol id="k" overflow="visible">
   <path d="m27.734-14.562v14.562h-7.7031v-11.156c0-2.0625-0.046875-3.4844-0.14062-4.2656-0.085937-0.78125-0.24219-1.3594-0.46875-1.7344-0.30469-0.5-0.71094-0.88281-1.2188-1.1562-0.51172-0.28125-1.0938-0.42188-1.75-0.42188-1.5938 0-2.8516 0.61719-3.7656 1.8438-0.90625 1.2305-1.3594 2.9375-1.3594 5.125v11.766h-7.6562v-23.922h7.6562v3.5c1.1445-1.3945 2.3633-2.4219 3.6562-3.0781 1.3008-0.66406 2.7383-1 4.3125-1 2.7578 0 4.8516 0.85156 6.2812 2.5469 1.4375 1.6875 2.1562 4.1523 2.1562 7.3906z"/>
  </symbol>
  <symbol id="b" overflow="visible">
   <path d="m3.6719-33.234h7.6562v18.094l8.7969-8.7812h8.8906l-11.688 10.969 12.594 12.953h-9.2656l-9.3281-9.9688v9.9688h-7.6562z"/>
  </symbol>
  <symbol id="j" overflow="visible">
   <path d="m3.6719-23.922h7.6562v23.922h-7.6562zm0-9.3125h7.6562v6.2344h-7.6562z"/>
  </symbol>
 </defs>
 <g>
  <path d="m472.5 52.5h-96.25v17.5h96.25c6.9609 0 13.641 2.7656 18.562 7.6875s7.6875 11.602 7.6875 18.562v8.75h-61.25v17.5h61.25v232.63l-22.629-22.629h5.1289v-17.5h-23.203c-7.0469-5.7383-15.855-8.8711-24.938-8.8711-9.0859 0-17.895 3.1328-24.938 8.8711h-31.922v17.5h19.574c-1.9531 5.6133-2.6172 11.594-1.9531 17.5h-17.621v17.5h23.766c1.4688 2.2266 3.1602 4.3008 5.0469 6.1875l11.316 11.312h-40.129v17.5h57.629l17.5 17.5h-75.129v17.5h68.25c-2.4609 5.6289-4.3516 11.492-5.6445 17.5h-185.11v-78.75h-17.5v122.5c0.015625 11.598 4.6289 22.719 12.828 30.922 8.2031 8.1992 19.324 12.812 30.922 12.828h192.5v-17.5c0-1.9883-0.67578-3.918-1.918-5.4688-9.2773-11.508-14.855-25.555-16.004-40.293-1.1523-14.738 2.1836-29.48 9.5664-42.289l7.2031-12.609h-0.003906c1.9453-3.418 1.3672-7.7148-1.4062-10.5l-52.5-52.5c-5.4609-5.6328-7.5391-13.73-5.4688-21.297 2.0703-7.5664 7.9805-13.477 15.547-15.547 7.5664-2.0703 15.664 0.007812 21.297 5.4648l70 70 12.371-12.371-14.934-14.961v-85.863l24.266 29.27v-0.003906c12.559 14.355 19.484 32.781 19.484 51.855v174.61h17.5v-174.61c0.027344-23.23-8.3672-45.68-23.625-63.195l-37.625-45.352v-163.09c-0.015625-11.598-4.6289-22.719-12.828-30.922-8.2031-8.1992-19.324-12.812-30.922-12.828zm-192.5 472.5c-6.9609 0-13.641-2.7656-18.562-7.6875s-7.6875-11.602-7.6875-18.562v-26.25h183.33c-0.23047 18.734 5.3672 37.082 16.016 52.5z"/>
  <path d="m367.5 490h17.5v17.5h-17.5z"/>
  <path d="m271.25 376.25v52.5c0 2.3203 0.92188 4.5469 2.5625 6.1875s3.8672 2.5625 6.1875 2.5625h70c2.3203 0 4.5469-0.92188 6.1875-2.5625s2.5625-3.8672 2.5625-6.1875v-61.25h-17.5v52.5h-52.5v-43.75z"/>
  <path d="m428.75 280h52.5v17.5h-52.5z"/>
  <path d="m428.75 245h52.5v17.5h-52.5z"/>
  <path d="m455 175h26.25v17.5h-26.25z"/>
  <path d="m446.25 210h35v17.5h-35z"/>
  <path d="m437.5 140h43.75v17.5h-43.75z"/>
  <path d="m89.758 198.37 29.426 32.531-9.2148 42.875c-0.94531 4.3945 1.5898 8.7891 5.8633 10.168l41.754 13.469 13.457 41.754h0.003906c1.3789 4.2734 5.7734 6.8086 10.164 5.8633l42.875-9.2148 32.531 29.426h0.003906c3.332 3.0156 8.4102 3.0156 11.742 0l32.531-29.426 42.875 9.2148c4.3906 0.94531 8.7852-1.5898 10.168-5.8633l13.477-41.754 41.754-13.457v-0.003906c4.2734-1.3789 6.8086-5.7734 5.8633-10.164l-9.2148-42.875 29.426-32.531v-0.003906c3.0156-3.332 3.0156-8.4102 0-11.742l-29.426-32.531 9.2148-42.875c0.94531-4.3906-1.5898-8.7852-5.8633-10.168l-41.754-13.477-13.461-41.754c-1.3789-4.2734-5.7734-6.8086-10.164-5.8633l-42.875 9.2148-32.543-29.426c-3.332-3.0156-8.4102-3.0156-11.742 0l-32.531 29.426-42.875-9.2148c-4.3945-0.94531-8.7891 1.5898-10.168 5.8633l-13.469 41.754-41.754 13.461c-4.2734 1.3789-6.8086 5.7734-5.8633 10.164l9.2148 42.875-29.426 32.543c-3.0156 3.332-3.0156 8.4102 0 11.742zm45.414-35.875c1.8867-2.0859 2.6562-4.957 2.0625-7.707l-8.4961-39.531 38.5-12.406v-0.003906c2.6797-0.86328 4.7812-2.9648 5.6445-5.6445l12.406-38.5 39.531 8.4961h0.003907c2.75 0.57812 5.6133-0.1875 7.707-2.0625l29.969-27.09 29.984 27.125c2.0898 1.8867 4.957 2.6562 7.7109 2.0625l39.531-8.4961 12.406 38.5h0.003907c0.86328 2.6797 2.9609 4.7812 5.6406 5.6445l38.5 12.406-8.4961 39.531v0.003907c-0.58984 2.75 0.17969 5.6211 2.0664 7.707l27.105 29.969-27.125 29.984c-1.8867 2.0898-2.6562 4.957-2.0625 7.7109l8.4961 39.531-38.5 12.406v0.003907c-2.6797 0.86328-4.7812 2.9609-5.6445 5.6406l-12.406 38.5-39.531-8.4961h-0.003907c-2.75-0.58984-5.6211 0.17969-7.707 2.0664l-29.969 27.105-29.984-27.125c-2.0898-1.8867-4.957-2.6562-7.7109-2.0625l-39.531 8.4961-12.406-38.5h-0.003907c-0.86328-2.6797-2.9609-4.7812-5.6406-5.6445l-38.5-12.406 8.4961-39.531v-0.003907c0.58984-2.75-0.17969-5.6211-2.0664-7.707l-27.105-29.969z"/>
  <path d="m173.95 234.03c3.6445 2.3203 7.6758 3.9688 11.902 4.8555l6.8242 34.125c0.83594 4.0703 4.418 6.9922 8.5742 6.9922h35c2.6602 0 5.1797-1.207 6.8398-3.2852 1.6641-2.082 2.2891-4.8047 1.6992-7.3984l-7.8047-34.5 85.75 10.125v-0.003906c0.33594 0.042969 0.67578 0.0625 1.0156 0.0625 2.6406 0 5.1406-1.1914 6.8047-3.2461 1.6602-2.0547 2.3047-4.75 1.7539-7.332l-26.25-122.5c-0.61328-2.8633-2.6172-5.2266-5.3398-6.3047-2.7227-1.0742-5.8008-0.71875-8.207 0.94922l-81.805 56.797-24.852 5.3633h0.003906c-9.3125 2.0078-17.445 7.6367-22.609 15.641-5.1641 8.0039-6.9414 17.734-4.9336 27.047 2.0078 9.3125 7.6289 17.445 15.633 22.613zm117.75-105.59 20.93 97.695-79.625-9.4062-8.918-41.309zm-66.395 134.07h-16.879l-4.8203-24.105 15.488-3.3438zm-47.355-68.652c2.6406-4.1133 6.8203-7 11.602-8.0156l18-3.8867 4.8398 22.426 2.9297 13.598-18.008 3.875v0.003906c-4.7773 1.0273-9.7656 0.11719-13.871-2.5352-4.1016-2.6484-6.9883-6.8203-8.0195-11.594-1.0273-4.7773-0.12109-9.7656 2.5273-13.871z"/>
  <path d="m341.25 157.5h17.5v17.5h-17.5z"/>
  <path d="m328.59 123.42 17.5-8.75 7.8281 15.652-17.5 8.75z"/>
  <path d="m341.25 201.25h17.5v17.5h-17.5z"/>
  <use x="70" y="691.25" xlink:href="#m"/>
  <use x="102.109375" y="691.25" xlink:href="#i"/>
  <use x="123.683594" y="691.25" xlink:href="#a"/>
  <use x="153.355469" y="691.25" xlink:href="#h"/>
  <use x="182.878906" y="691.25" xlink:href="#g"/>
  <use x="203.792969" y="691.25" xlink:href="#a"/>
  <use x="233.464844" y="691.25" xlink:href="#f"/>
  <use x="280.011719" y="691.25" xlink:href="#e"/>
  <use x="311.328125" y="691.25" xlink:href="#d"/>
  <use x="355.078125" y="691.25" xlink:href="#c"/>
  <use x="400.667969" y="691.25" xlink:href="#l"/>
  <use x="430.722656" y="691.25" xlink:href="#k"/>
  <use x="461.871094" y="691.25" xlink:href="#b"/>
  <use x="490.964844" y="691.25" xlink:href="#j"/>
  <use x="505.960938" y="691.25" xlink:href="#b"/>
 </g>
</svg>
