<?xml version="1.0" encoding="UTF-8"?>
<svg width="700pt" height="700pt" version="1.1" viewBox="0 0 700 700" xmlns="http://www.w3.org/2000/svg" xmlns:xlink="http://www.w3.org/1999/xlink">
 <defs>
  <symbol id="t" overflow="visible">
   <path d="m3.6562-0.21875c-0.1875 0.09375-0.38672 0.16797-0.59375 0.21875-0.19922 0.050781-0.40625 0.078125-0.625 0.078125-0.66797 0-1.1992-0.17969-1.5938-0.54688-0.38672-0.375-0.57812-0.87891-0.57812-1.5156 0-0.64453 0.19141-1.1484 0.57812-1.5156 0.39453-0.375 0.92578-0.5625 1.5938-0.5625 0.21875 0 0.42578 0.027344 0.625 0.078125 0.20703 0.054687 0.40625 0.125 0.59375 0.21875v0.82812c-0.1875-0.125-0.375-0.21875-0.5625-0.28125-0.17969-0.0625-0.37109-0.09375-0.57812-0.09375-0.36719 0-0.65625 0.12109-0.875 0.35938-0.21094 0.23047-0.3125 0.55469-0.3125 0.96875 0 0.40625 0.10156 0.73047 0.3125 0.96875 0.21875 0.23047 0.50781 0.34375 0.875 0.34375 0.20703 0 0.39844-0.023437 0.57812-0.078125 0.1875-0.0625 0.375-0.16016 0.5625-0.29688z"/>
  </symbol>
  <symbol id="d" overflow="visible">
   <path d="m2.6875-2.1719c-0.085938-0.039063-0.16797-0.070313-0.25-0.09375-0.085938-0.019531-0.16797-0.03125-0.25-0.03125-0.25 0-0.44531 0.085937-0.57812 0.25-0.125 0.15625-0.1875 0.38281-0.1875 0.67188v1.375h-0.96875v-2.9844h0.96875v0.48438c0.11328-0.19531 0.25-0.33594 0.40625-0.42188 0.16406-0.09375 0.35938-0.14062 0.57812-0.14062h0.10938c0.039063 0 0.09375 0.007812 0.15625 0.015625z"/>
  </symbol>
  <symbol id="a" overflow="visible">
   <path d="m3.4375-1.5v0.26562h-2.2344c0.03125 0.23047 0.11328 0.40234 0.25 0.51562 0.13281 0.10547 0.32812 0.15625 0.57812 0.15625 0.20703 0 0.41406-0.023438 0.625-0.078125 0.20703-0.0625 0.42188-0.15625 0.64062-0.28125v0.73438c-0.21875 0.09375-0.44531 0.16406-0.67188 0.20312-0.23047 0.039062-0.45312 0.0625-0.67188 0.0625-0.54297 0-0.96484-0.13281-1.2656-0.40625-0.30469-0.28125-0.45312-0.67188-0.45312-1.1719 0-0.47656 0.14453-0.85938 0.4375-1.1406 0.30078-0.28125 0.70703-0.42188 1.2188-0.42188 0.46875 0 0.84375 0.14062 1.125 0.42188s0.42188 0.66406 0.42188 1.1406zm-0.96875-0.32812c0-0.17578-0.058594-0.31641-0.17188-0.42188-0.10547-0.11328-0.24219-0.17188-0.40625-0.17188-0.1875 0-0.33984 0.054687-0.45312 0.15625-0.11719 0.10547-0.1875 0.25-0.21875 0.4375z"/>
  </symbol>
  <symbol id="l" overflow="visible">
   <path d="m1.7969-1.3438c-0.19922 0-0.35156 0.039062-0.45312 0.10938-0.09375 0.0625-0.14062 0.16406-0.14062 0.29688 0 0.11719 0.035156 0.21094 0.10938 0.28125 0.082031 0.0625 0.19531 0.09375 0.34375 0.09375 0.17578 0 0.32812-0.0625 0.45312-0.1875s0.1875-0.28516 0.1875-0.48438v-0.10938zm1.4688-0.35938v1.7031h-0.96875v-0.4375c-0.125 0.17969-0.27344 0.30859-0.4375 0.39062-0.15625 0.082031-0.35156 0.125-0.57812 0.125-0.3125 0-0.57031-0.085938-0.76562-0.26562-0.1875-0.1875-0.28125-0.42188-0.28125-0.70312 0-0.35156 0.11719-0.61328 0.35938-0.78125 0.23828-0.16406 0.61719-0.25 1.1406-0.25h0.5625v-0.0625c0-0.15625-0.0625-0.26562-0.1875-0.32812-0.11719-0.070312-0.29688-0.10938-0.54688-0.10938-0.21094 0-0.40234 0.023437-0.57812 0.0625-0.17969 0.042969-0.33984 0.10156-0.48438 0.17188v-0.71875c0.19531-0.050781 0.39844-0.085938 0.60938-0.10938 0.20703-0.03125 0.41406-0.046875 0.625-0.046875 0.53906 0 0.92969 0.10938 1.1719 0.32812 0.23828 0.21094 0.35938 0.55469 0.35938 1.0312z"/>
  </symbol>
  <symbol id="c" overflow="visible">
   <path d="m1.5-3.8438v0.85938h0.98438v0.67188h-0.98438v1.2812c0 0.13672 0.023438 0.23047 0.078125 0.28125 0.0625 0.042969 0.17578 0.0625 0.34375 0.0625h0.48438v0.6875h-0.8125c-0.38672 0-0.65625-0.078125-0.8125-0.23438s-0.23438-0.42188-0.23438-0.79688v-1.2812h-0.46875v-0.67188h0.46875v-0.85938z"/>
  </symbol>
  <symbol id="f" overflow="visible">
   <path d="m2.5-2.5469v-1.6094h0.95312v4.1562h-0.95312v-0.4375c-0.13672 0.17969-0.28125 0.30859-0.4375 0.39062-0.15625 0.082031-0.33984 0.125-0.54688 0.125-0.375 0-0.68359-0.14453-0.92188-0.4375-0.23047-0.28906-0.34375-0.67188-0.34375-1.1406 0-0.45703 0.11328-0.83203 0.34375-1.125 0.23828-0.28906 0.54688-0.4375 0.92188-0.4375 0.19531 0 0.375 0.042969 0.53125 0.125 0.16406 0.085938 0.31641 0.21484 0.45312 0.39062zm-0.64062 1.9375c0.20703 0 0.36328-0.070313 0.46875-0.21875 0.11328-0.15625 0.17188-0.37891 0.17188-0.67188 0-0.28125-0.058594-0.49219-0.17188-0.64062-0.10547-0.15625-0.26172-0.23438-0.46875-0.23438-0.19922 0-0.35547 0.078125-0.46875 0.23438-0.10547 0.14844-0.15625 0.35938-0.15625 0.64062 0 0.29297 0.050781 0.51562 0.15625 0.67188 0.11328 0.14844 0.26953 0.21875 0.46875 0.21875z"/>
  </symbol>
  <symbol id="k" overflow="visible">
   <path d="m2.0469-0.60938c0.20703 0 0.36328-0.070313 0.46875-0.21875 0.11328-0.15625 0.17188-0.37891 0.17188-0.67188 0-0.28125-0.058594-0.49219-0.17188-0.64062-0.10547-0.15625-0.26172-0.23438-0.46875-0.23438-0.19922 0-0.35547 0.078125-0.46875 0.23438-0.10547 0.14844-0.15625 0.35938-0.15625 0.64062 0 0.29297 0.050781 0.51562 0.15625 0.67188 0.11328 0.14844 0.26953 0.21875 0.46875 0.21875zm-0.625-1.9375c0.125-0.17578 0.26562-0.30469 0.42188-0.39062 0.16406-0.082031 0.35156-0.125 0.5625-0.125 0.36328 0 0.66406 0.14844 0.90625 0.4375 0.23828 0.29297 0.35938 0.66797 0.35938 1.125 0 0.46875-0.12109 0.85156-0.35938 1.1406-0.24219 0.29297-0.54297 0.4375-0.90625 0.4375-0.21094 0-0.39844-0.042969-0.5625-0.125-0.15625-0.082031-0.29688-0.21094-0.42188-0.39062v0.4375h-0.96875v-4.1562h0.96875z"/>
  </symbol>
  <symbol id="j" overflow="visible">
   <path d="m0.0625-2.9844h0.95312l0.8125 2.0156 0.6875-2.0156h0.95312l-1.2656 3.2656c-0.125 0.33203-0.27344 0.56641-0.4375 0.70312-0.16797 0.13281-0.39062 0.20312-0.67188 0.20312h-0.54688v-0.64062h0.29688c0.16406 0 0.28516-0.027344 0.35938-0.078125 0.070313-0.054688 0.12891-0.14062 0.17188-0.26562l0.03125-0.09375z"/>
  </symbol>
  <symbol id="e" overflow="visible">
   <path d="m0.45312-2.9844h0.96875v2.9844h-0.96875zm0-1.1719h0.96875v0.78125h-0.96875z"/>
  </symbol>
  <symbol id="i" overflow="visible">
   <path d="m2.875-2.8906v0.76562c-0.125-0.082031-0.25781-0.14453-0.39062-0.1875-0.13672-0.039062-0.27344-0.0625-0.40625-0.0625-0.27344 0-0.48047 0.078125-0.625 0.23438-0.14844 0.15625-0.21875 0.37109-0.21875 0.64062 0 0.28125 0.070313 0.5 0.21875 0.65625 0.14453 0.15625 0.35156 0.23438 0.625 0.23438 0.14453 0 0.28516-0.019531 0.42188-0.0625 0.13281-0.039063 0.25781-0.10938 0.375-0.20312v0.78125c-0.14844 0.0625-0.29688 0.10156-0.45312 0.125-0.15625 0.03125-0.3125 0.046875-0.46875 0.046875-0.54297 0-0.96484-0.13281-1.2656-0.40625-0.30469-0.28125-0.45312-0.67188-0.45312-1.1719 0-0.48828 0.14844-0.86719 0.45312-1.1406 0.30078-0.28125 0.72266-0.42188 1.2656-0.42188 0.15625 0 0.3125 0.015625 0.46875 0.046875 0.15625 0.023437 0.30469 0.0625 0.45312 0.125z"/>
  </symbol>
  <symbol id="b" overflow="visible">
   <path d="m1.875-2.375c-0.21094 0-0.37109 0.078125-0.48438 0.23438-0.10547 0.14844-0.15625 0.35938-0.15625 0.64062 0 0.29297 0.050781 0.51562 0.15625 0.67188 0.11328 0.14844 0.27344 0.21875 0.48438 0.21875 0.20703 0 0.36719-0.070313 0.48438-0.21875 0.11328-0.15625 0.17188-0.37891 0.17188-0.67188 0-0.28125-0.058594-0.49219-0.17188-0.64062-0.11719-0.15625-0.27734-0.23438-0.48438-0.23438zm0-0.6875c0.51953 0 0.92188 0.14062 1.2031 0.42188 0.28906 0.27344 0.4375 0.65234 0.4375 1.1406 0 0.5-0.14844 0.89062-0.4375 1.1719-0.28125 0.27344-0.68359 0.40625-1.2031 0.40625-0.51172 0-0.91406-0.13281-1.2031-0.40625-0.29297-0.28125-0.4375-0.67188-0.4375-1.1719 0-0.48828 0.14453-0.86719 0.4375-1.1406 0.28906-0.28125 0.69141-0.42188 1.2031-0.42188z"/>
  </symbol>
  <symbol id="h" overflow="visible">
   <path d="m3.4688-1.8281v1.8281h-0.96875v-1.3906c0-0.25781-0.007812-0.4375-0.015625-0.53125-0.011719-0.10156-0.03125-0.17578-0.0625-0.21875-0.03125-0.0625-0.085937-0.10938-0.15625-0.14062-0.0625-0.039062-0.13281-0.0625-0.20312-0.0625-0.21094 0-0.37109 0.078125-0.48438 0.23438-0.10547 0.15625-0.15625 0.37109-0.15625 0.64062v1.4688h-0.96875v-2.9844h0.96875v0.4375c0.13281-0.17578 0.28516-0.30469 0.45312-0.39062 0.16406-0.082031 0.34375-0.125 0.53125-0.125 0.34375 0 0.60156 0.10938 0.78125 0.32812 0.1875 0.21094 0.28125 0.51172 0.28125 0.90625z"/>
  </symbol>
  <symbol id="g" overflow="visible">
   <path d="m2.4219-4.1562v0.625h-0.51562c-0.13672 0-0.23438 0.027344-0.29688 0.078125-0.054687 0.054687-0.078125 0.13672-0.078125 0.25v0.21875h0.82812v0.67188h-0.82812v2.3125h-0.95312v-2.3125h-0.46875v-0.67188h0.46875v-0.21875c0-0.32031 0.085937-0.5625 0.26562-0.71875 0.1875-0.15625 0.47266-0.23438 0.85938-0.23438z"/>
  </symbol>
  <symbol id="s" overflow="visible">
   <path d="m0.45312-4.1562h0.96875v4.1562h-0.96875z"/>
  </symbol>
  <symbol id="r" overflow="visible">
   <path d="m3.2344-2.5c0.11328-0.17578 0.25391-0.3125 0.42188-0.40625 0.16406-0.10156 0.35156-0.15625 0.5625-0.15625 0.33203 0 0.58594 0.10938 0.76562 0.32812 0.1875 0.21094 0.28125 0.51172 0.28125 0.90625v1.8281h-0.96875v-1.5625c0.007813-0.019531 0.015625-0.039062 0.015625-0.0625v-0.10938c0-0.21875-0.03125-0.375-0.09375-0.46875s-0.16406-0.14062-0.29688-0.14062c-0.1875 0-0.33594 0.078125-0.4375 0.23438-0.09375 0.14844-0.14062 0.35938-0.14062 0.64062v1.4688h-0.96875v-1.5625c0-0.33203-0.03125-0.54688-0.09375-0.64062-0.054688-0.09375-0.15234-0.14062-0.29688-0.14062-0.17969 0-0.32031 0.078125-0.42188 0.23438-0.09375 0.14844-0.14062 0.35938-0.14062 0.64062v1.4688h-0.96875v-2.9844h0.96875v0.4375c0.11328-0.17578 0.24219-0.30469 0.39062-0.39062 0.15625-0.082031 0.32812-0.125 0.51562-0.125 0.20703 0 0.39062 0.054688 0.54688 0.15625 0.15625 0.09375 0.27344 0.23047 0.35938 0.40625z"/>
  </symbol>
  <symbol id="q" overflow="visible">
   <path d="m3.4688-1.8281v1.8281h-0.96875v-1.3906c0-0.25781-0.007812-0.4375-0.015625-0.53125-0.011719-0.10156-0.03125-0.17578-0.0625-0.21875-0.03125-0.0625-0.085937-0.10938-0.15625-0.14062-0.0625-0.039062-0.13281-0.0625-0.20312-0.0625-0.21094 0-0.37109 0.078125-0.48438 0.23438-0.10547 0.15625-0.15625 0.37109-0.15625 0.64062v1.4688h-0.96875v-4.1562h0.96875v1.6094c0.13281-0.17578 0.28516-0.30469 0.45312-0.39062 0.16406-0.082031 0.34375-0.125 0.53125-0.125 0.34375 0 0.60156 0.10938 0.78125 0.32812 0.1875 0.21094 0.28125 0.51172 0.28125 0.90625z"/>
  </symbol>
  <symbol id="p" overflow="visible">
   <path d="m0.5-3.9844h1.1562l1.4375 2.7344v-2.7344h0.98438v3.9844h-1.1562l-1.4375-2.7344v2.7344h-0.98438z"/>
  </symbol>
  <symbol id="o" overflow="visible">
   <path d="m0.42188-1.1719v-1.8125h0.96875v0.29688 0.60938 0.48438c0 0.24219 0.003906 0.41797 0.015625 0.53125 0.007812 0.10547 0.03125 0.17969 0.0625 0.21875 0.039062 0.0625 0.09375 0.11719 0.15625 0.15625 0.0625 0.03125 0.13281 0.046875 0.21875 0.046875 0.19531 0 0.35156-0.078125 0.46875-0.23438 0.11328-0.15625 0.17188-0.36719 0.17188-0.64062v-1.4688h0.95312v2.9844h-0.95312v-0.4375c-0.14844 0.17969-0.30469 0.30859-0.46875 0.39062-0.15625 0.082031-0.33594 0.125-0.53125 0.125-0.34375 0-0.60938-0.10156-0.79688-0.3125-0.17969-0.21875-0.26562-0.53125-0.26562-0.9375z"/>
  </symbol>
  <symbol id="n" overflow="visible">
   <path d="m0.5-3.9844h1.7031c0.50781 0 0.89844 0.11719 1.1719 0.34375 0.26953 0.21875 0.40625 0.53906 0.40625 0.95312 0 0.41797-0.13672 0.74219-0.40625 0.96875-0.27344 0.21875-0.66406 0.32812-1.1719 0.32812h-0.67188v1.3906h-1.0312zm1.0312 0.75v1.1094h0.5625c0.19531 0 0.34766-0.046875 0.45312-0.14062 0.11328-0.10156 0.17188-0.24219 0.17188-0.42188 0-0.17578-0.058594-0.3125-0.17188-0.40625-0.10547-0.09375-0.25781-0.14062-0.45312-0.14062z"/>
  </symbol>
  <symbol id="m" overflow="visible">
   <path d="m0.45312-2.9844h0.96875v2.9375c0 0.39453-0.10156 0.69531-0.29688 0.90625-0.1875 0.21875-0.46484 0.32812-0.82812 0.32812h-0.48438v-0.64062h0.17188c0.17578 0 0.29688-0.042969 0.35938-0.125 0.070312-0.074219 0.10938-0.23047 0.10938-0.46875zm0-1.1719h0.96875v0.78125h-0.96875z"/>
  </symbol>
 </defs>
 <g>
  <path d="m591.39 190.2c-0.91797-14.527-10.223-27.43-23.672-32.863-11.902-4.8984-25.484-1.6211-33.863 8.1445-7.3984 8.1953-11.387 18.762-11.234 29.793l-0.88672 78.414c-10.695 1.7305-20.336 7.5039-26.93 16.27l-45.898 59.117c-6.375 8.0508-10.324 17.695-11.434 27.988l-7.3945 74.781c-0.59375 6.0117 3.7969 11.367 9.8086 11.961 0.36719 0.035156 0.72656 0.054687 1.0898 0.054687 5.5547 0 10.312-4.2188 10.871-9.8633l7.3828-74.688c0.65625-6.0859 3.0156-11.848 6.8906-16.742l46.016-59.27c0.039063-0.050781 0.078126-0.10156 0.11719-0.15234 3.5977-4.8047 9.0859-7.7578 15.062-8.1016 0.042969-0.003907 0.085938-0.003907 0.125-0.007813 0.44141-0.03125 0.87891-0.019531 1.3125 0.015625 0.85547 0.31641 1.7578 0.53516 2.7031 0.62891 2.1875 0.87109 4.0156 2.5547 4.9961 4.7773 1.9258 4.4258 2.2188 9.2812 0.94531 13.789-0.30469 0.66016-0.54297 1.3516-0.71484 2.0742-0.51172 1.2773-1.1523 2.5156-1.9297 3.6914-0.046875 0.070312-0.089844 0.14062-0.13672 0.21094l-24.082 38.402c-3.207 5.1172-1.6602 11.867 3.457 15.078 5.1172 3.207 11.867 1.6602 15.078-3.457l24.02-38.309c7.8789-12.027 9.1562-27.051 3.3984-40.258-2.7148-6.1758-7.3164-11.129-12.922-14.363l0.92578-81.945v-0.3125c-0.097656-5.5547 1.9141-10.879 5.6641-14.992 0.089844-0.097656 0.17578-0.19922 0.26562-0.30078 2.2109-2.6172 5.8203-3.5 9.0391-2.1758 5.7617 2.3281 9.7266 7.8359 10.102 14.031 0.003906 0.070312 0.007812 0.13672 0.015625 0.20703l11.281 142.28c0.45312 5.7852-0.69922 11.562-3.3516 16.73l-61.582 120.74c-2.7461 5.3828-0.60938 11.969 4.7734 14.715 1.5898 0.8125 3.2891 1.1953 4.9609 1.1953 3.9805 0 7.8203-2.1797 9.75-5.9688l61.57-120.72c4.4922-8.7539 6.457-18.574 5.6836-28.41z"/>
  <path d="m174.34 487.49c1.6719 0 3.3711-0.38281 4.9609-1.1953 5.3828-2.7461 7.5195-9.332 4.7734-14.715l-61.594-120.77c-2.6367-5.1445-3.793-10.922-3.3398-16.699l11.281-142.29c0.003907-0.070313 0.011719-0.13672 0.015625-0.20703 0.375-6.1953 4.3398-11.703 10.164-14.059 3.1602-1.3008 6.7656-0.41406 8.9766 2.2031 0.085938 0.10156 0.17578 0.20312 0.26562 0.30078 3.7461 4.1133 5.7578 9.4375 5.6641 14.992-0.003907 0.10547-0.003907 0.20703 0 0.3125l0.92578 81.949c-5.6055 3.2383-10.211 8.1992-12.934 14.395-5.7422 13.172-4.4648 28.199 3.4141 40.223l24.02 38.309c3.2109 5.1172 9.957 6.668 15.078 3.457 5.1172-3.2109 6.6641-9.9609 3.457-15.078l-24.082-38.402c-0.042969-0.070312-0.089844-0.14062-0.13672-0.21094-0.77734-1.1758-1.4141-2.4141-1.9297-3.6914-0.16797-0.72656-0.41016-1.4219-0.71484-2.082-1.2734-4.5039-0.98438-9.3516 0.93359-13.75 0.98828-2.2461 2.8203-3.9375 5.0156-4.8086 0.94141-0.09375 1.8398-0.3125 2.6914-0.625 0.43359-0.035157 0.875-0.046876 1.3164-0.015626 0.042969 0.003907 0.085938 0.007813 0.125 0.007813 5.9766 0.34766 11.465 3.3008 15.062 8.1016 0.039063 0.050781 0.078125 0.10156 0.11719 0.15234l46.082 59.352c3.8086 4.8086 6.168 10.57 6.8164 16.562l7.3945 74.781c0.55859 5.6445 5.3125 9.8633 10.871 9.8633 0.35938 0 0.72266-0.019531 1.0898-0.054687 6.0117-0.59375 10.402-5.9492 9.8086-11.961l-7.4023-74.879c-1.0977-10.199-5.0508-19.844-11.359-27.812l-45.961-59.199c-6.5938-8.7617-16.234-14.539-26.93-16.27l-0.88672-78.414c0.14844-11.031-3.8359-21.598-11.234-29.793-8.3789-9.7656-21.961-13.039-33.801-8.168-13.512 5.4609-22.816 18.359-23.734 32.887l-11.289 142.2c-0.77344 9.832 1.1914 19.652 5.6719 28.383l61.582 120.74c1.9336 3.7891 5.7734 5.9688 9.7539 5.9688z"/>
  <path d="m214.88 284.46h65.332c4.793 7.8359 13.484 13.082 23.395 13.082h92.781c7.3984 0 14.289-2.8164 19.402-7.9258 1.5508-1.5508 2.8984-3.2891 4.0195-5.1562h65.305c6.6992 0 12.941-2.5547 17.574-7.1875 4.5664-4.5664 7.1875-10.887 7.1875-17.34v-1.1719-0.18359c-0.47266-27.832-19.133-51.547-44.762-59.637 14.289-7.0352 24.145-21.691 24.145-38.594 0-23.859-19.414-43.273-43.277-43.273s-43.277 19.414-43.277 43.273c0 16.855 9.7969 31.469 24.02 38.531-9.1992 2.8789-17.668 7.8516-24.855 14.719-0.79688 0.76172-1.5664 1.5469-2.3203 2.3477-9.8047-8.9023-22.016-15.238-35.562-17.875 20.375-6.0117 35.285-24.789 35.285-46.973 0-27.168-22.105-49.27-49.273-49.27s-49.273 22.102-49.273 49.27c0 22.145 14.852 40.895 35.168 46.941-13.211 2.5195-25.43 8.6211-35.562 17.887-7.4922-7.8906-16.84-13.727-27.176-16.984 14.285-7.0391 24.133-21.688 24.133-38.59 0-23.859-19.414-43.273-43.277-43.273s-43.277 19.414-43.277 43.273c0 16.855 9.7969 31.473 24.02 38.531-9.1992 2.8789-17.672 7.8516-24.855 14.719-12.758 12.191-19.785 28.648-19.785 46.34 0.007813 13.516 11.117 24.52 24.77 24.52zm231.1-145.52c11.801 0 21.402 9.5977 21.402 21.398 0 11.672-9.6016 21.168-21.402 21.168s-21.402-9.4961-21.402-21.168c0.003906-11.801 9.6016-21.398 21.402-21.398zm2.0352 78.945c22.027 1.125 39.574 19.113 39.988 40.965v1.0742c0 0.67578-0.29688 1.3906-0.78125 1.8711-0.64453 0.64453-1.5 0.78125-2.1055 0.78125l-61.785 0.003906c-0.011719-0.12891-0.035156-0.25781-0.050781-0.38672-0.085938-0.76953-0.19141-1.5273-0.30078-2.2891-0.070313-0.48047-0.125-0.96484-0.20312-1.4453-0.14844-0.90625-0.32422-1.8008-0.50391-2.6992-0.12891-0.63672-0.26563-1.2695-0.41016-1.9023-0.19531-0.85547-0.39453-1.707-0.62109-2.5508-0.13281-0.5-0.28906-0.99609-0.43359-1.4922-0.20312-0.69531-0.40234-1.3867-0.625-2.0703-0.15625-0.48438-0.33203-0.96484-0.5-1.4492-0.24609-0.70703-0.49609-1.4102-0.76172-2.1055-0.16406-0.42969-0.33984-0.85938-0.51172-1.2852-0.3125-0.77344-0.63672-1.5391-0.97656-2.2969-0.15234-0.33594-0.30078-0.67578-0.45703-1.0117-0.42187-0.91016-0.86328-1.8125-1.3242-2.7031-0.089844-0.17578-0.17969-0.35547-0.27344-0.53125-0.58203-1.1055-1.1875-2.1992-1.8203-3.2734 1.0664-1.293 2.2109-2.5234 3.4258-3.6875 8.3516-7.9805 19.379-12.059 31.031-11.516zm-125.41-66.801c0-15.105 12.289-27.395 27.398-27.395 15.105 0 27.398 12.289 27.398 27.395 0 14.953-12.289 27.121-27.398 27.121-15.105 0-27.398-12.168-27.398-27.121zm27.297 67.484c0.86328 0 1.7344 0.019532 2.6016 0.0625 15.867 0.80859 29.844 8.7188 38.836 20.527 0.082031 0.12109 0.14844 0.25 0.23437 0.36719 3.207 4.2773 5.6953 8.9375 7.418 13.844 0.050781 0.14844 0.10547 0.29688 0.15625 0.44531 0.16016 0.47266 0.31641 0.94531 0.46094 1.4219 0.082031 0.26953 0.16016 0.53906 0.23828 0.80859 0.11719 0.40625 0.23438 0.80859 0.34375 1.2188 0.12891 0.49609 0.25 1 0.36328 1.5 0.078125 0.34766 0.15625 0.69531 0.23047 1.043 0.11719 0.5625 0.22656 1.1289 0.32812 1.6992 0.042969 0.26172 0.082031 0.52344 0.125 0.78125 0.078125 0.5 0.14844 1 0.21484 1.5039 0.035156 0.26953 0.066406 0.53906 0.09375 0.80859 0.058593 0.52344 0.10547 1.0547 0.14453 1.582 0.019531 0.23828 0.039062 0.47656 0.054688 0.71484 0.046874 0.76172 0.085937 1.5273 0.097656 2.2969v1.293c0 0.33594-0.035156 0.67188-0.10156 1-0.20312 0.99219-0.69922 1.9375-1.4102 2.6523-0.98047 0.98047-2.375 1.5195-3.9336 1.5195h-92.781c-2.9023 0-5.4531-2.418-5.4531-5.1719 0-0.82031 0.023438-1.6406 0.0625-2.4531 0.011719-0.23828 0.027344-0.47266 0.042969-0.71094 0.035156-0.59766 0.078125-1.1914 0.13281-1.7852 0.023437-0.24219 0.046874-0.48828 0.070312-0.73047 0.070312-0.64844 0.14844-1.2969 0.24219-1.9414 0.023437-0.15625 0.039062-0.3125 0.0625-0.46484 0.25-1.6406 0.58203-3.2578 0.98437-4.8516 0.039063-0.15625 0.082032-0.3125 0.125-0.46875 0.16797-0.64453 0.35156-1.2891 0.54688-1.9258 0.050781-0.16797 0.10156-0.33594 0.15234-0.50391 0.22266-0.69922 0.45703-1.3945 0.70703-2.082 0.027344-0.074218 0.050782-0.14844 0.078126-0.22266 0.28516-0.77344 0.58984-1.5391 0.91016-2.2969 0.054687-0.125 0.11328-0.25 0.16797-0.375 0.25391-0.58984 0.52344-1.1719 0.80078-1.7539 0.125-0.25781 0.25391-0.51562 0.38281-0.77344 0.21875-0.43359 0.44531-0.86719 0.67578-1.2969 0.16406-0.30078 0.32422-0.60547 0.49219-0.90234 0.20312-0.36328 0.41797-0.71875 0.63281-1.0781 0.83984-1.4062 1.7461-2.7812 2.7266-4.1133 1.8008-2.4531 3.8164-4.7773 6.0664-6.9258 9.6875-9.25 22.281-14.262 35.676-14.262zm-95.883-79.629c11.801 0 21.402 9.5977 21.402 21.398 0 11.672-9.6016 21.168-21.402 21.168s-21.402-9.4961-21.402-21.168c0.003907-11.801 9.6016-21.398 21.402-21.398zm-28.996 90.461c7.8516-7.5039 18.059-11.566 28.914-11.566 0.69922 0 1.4062 0.015624 2.1094 0.050781 11.883 0.60547 22.82 6.1797 30.328 15.223-0.054688 0.09375-0.10156 0.1875-0.15625 0.28125-0.52734 0.91016-1.0352 1.8281-1.5234 2.7539-0.12891 0.24609-0.25781 0.48828-0.38281 0.73438-0.44141 0.86328-0.86328 1.7344-1.2656 2.6133-0.14453 0.3125-0.29297 0.62891-0.42969 0.94531-0.36328 0.8125-0.70312 1.6367-1.0352 2.4648-0.15234 0.38281-0.30859 0.76562-0.45703 1.1523-0.29297 0.76953-0.56641 1.5469-0.83203 2.3242-0.15234 0.44531-0.30859 0.88672-0.45312 1.3359-0.23438 0.73438-0.44922 1.4727-0.66016 2.2148-0.14062 0.49609-0.28906 0.98828-0.42188 1.4883-0.1875 0.71094-0.35156 1.4258-0.51562 2.1406-0.125 0.53125-0.25391 1.0625-0.36719 1.5977-0.14844 0.70312-0.26953 1.4141-0.39453 2.125-0.097656 0.55078-0.20703 1.1016-0.29297 1.6562-0.11328 0.72656-0.19922 1.4648-0.28906 2.1953-0.058593 0.48438-0.14062 0.96094-0.19141 1.4453h-61.809c-1.5117 0-2.8906-1.2656-2.8906-2.6523-0.007812-11.656 4.6172-22.5 13.016-30.523z"/>
  <use x="70" y="576.40625" xlink:href="#t"/>
  <use x="74.011719" y="576.40625" xlink:href="#d"/>
  <use x="76.710938" y="576.40625" xlink:href="#a"/>
  <use x="80.417969" y="576.40625" xlink:href="#l"/>
  <use x="84.109375" y="576.40625" xlink:href="#c"/>
  <use x="86.722656" y="576.40625" xlink:href="#a"/>
  <use x="90.433594" y="576.40625" xlink:href="#f"/>
  <use x="96.25" y="576.40625" xlink:href="#k"/>
  <use x="100.167969" y="576.40625" xlink:href="#j"/>
  <use x="105.636719" y="576.40625" xlink:href="#e"/>
  <use x="107.507812" y="576.40625" xlink:href="#i"/>
  <use x="110.75" y="576.40625" xlink:href="#b"/>
  <use x="114.507812" y="576.40625" xlink:href="#h"/>
  <use x="118.402344" y="576.40625" xlink:href="#g"/>
  <use x="120.78125" y="576.40625" xlink:href="#e"/>
  <use x="122.65625" y="576.40625" xlink:href="#a"/>
  <use x="126.363281" y="576.40625" xlink:href="#s"/>
  <use x="128.238281" y="576.40625" xlink:href="#f"/>
  <use x="70" y="581.875" xlink:href="#g"/>
  <use x="72.378906" y="581.875" xlink:href="#d"/>
  <use x="75.078125" y="581.875" xlink:href="#b"/>
  <use x="78.832031" y="581.875" xlink:href="#r"/>
  <use x="86.4375" y="581.875" xlink:href="#c"/>
  <use x="89.050781" y="581.875" xlink:href="#q"/>
  <use x="92.941406" y="581.875" xlink:href="#a"/>
  <use x="98.554688" y="581.875" xlink:href="#p"/>
  <use x="103.132812" y="581.875" xlink:href="#b"/>
  <use x="106.890625" y="581.875" xlink:href="#o"/>
  <use x="110.785156" y="581.875" xlink:href="#h"/>
  <use x="116.582031" y="581.875" xlink:href="#n"/>
  <use x="120.589844" y="581.875" xlink:href="#d"/>
  <use x="123.285156" y="581.875" xlink:href="#b"/>
  <use x="127.042969" y="581.875" xlink:href="#m"/>
  <use x="128.917969" y="581.875" xlink:href="#a"/>
  <use x="132.625" y="581.875" xlink:href="#i"/>
  <use x="135.867188" y="581.875" xlink:href="#c"/>
 </g>
</svg>
