<svg id="Layer_1" data-name="Layer 1" xmlns="http://www.w3.org/2000/svg" xmlns:xlink="http://www.w3.org/1999/xlink" viewBox="0 0 16 16"><defs><style>.cls-1{fill:#1aadae;}.cls-2{fill:url(#linear-gradient);}.cls-3{fill:url(#linear-gradient-2);}.cls-4{fill:#f2e500;}.cls-5{fill:#fff;}</style><linearGradient id="linear-gradient" x1="8" y1="8.76" x2="8" y2="23.21" gradientUnits="userSpaceOnUse"><stop offset="0.09" stop-color="#fff" stop-opacity="0.5"/><stop offset="0.15" stop-color="#fff" stop-opacity="0.48"/><stop offset="0.22" stop-color="#fff" stop-opacity="0.43"/><stop offset="0.26" stop-color="#fff" stop-opacity="0.4"/><stop offset="0.35" stop-color="#fbfdfe" stop-opacity="0.39"/><stop offset="0.39" stop-color="#ecf8f8" stop-opacity="0.37"/><stop offset="0.41" stop-color="#d1efef" stop-opacity="0.32"/><stop offset="0.43" stop-color="#abe1e1" stop-opacity="0.25"/><stop offset="0.45" stop-color="#7acfd0" stop-opacity="0.17"/><stop offset="0.46" stop-color="#3ebabb" stop-opacity="0.06"/><stop offset="0.47" stop-color="#1aadae" stop-opacity="0"/></linearGradient><linearGradient id="linear-gradient-2" x1="7.98" y1="9.34" x2="7.98" y2="2.23" gradientUnits="userSpaceOnUse"><stop offset="0" stop-color="#fff" stop-opacity="0.4"/><stop offset="0.17" stop-color="#f4fbfb" stop-opacity="0.38"/><stop offset="0.39" stop-color="#d2efef" stop-opacity="0.32"/><stop offset="0.61" stop-color="#9bdbdc" stop-opacity="0.23"/><stop offset="0.86" stop-color="#4fc0c1" stop-opacity="0.09"/><stop offset="1" stop-color="#1aadae" stop-opacity="0"/></linearGradient></defs><rect class="cls-1" y="0.25" width="16" height="15.51" rx="1.42"/><rect class="cls-2" x="0.78" y="8.62" width="14.45" height="6.28" rx="1.31"/><rect class="cls-3" x="1.14" y="2.03" width="13.69" height="7.34" rx="1"/><circle class="cls-4" cx="13.13" cy="2.07" r="0.87"/><circle class="cls-4" cx="10.55" cy="2.63" r="0.87"/><circle class="cls-4" cx="7.92" cy="3.21" r="0.87"/><circle class="cls-4" cx="5.34" cy="3.76" r="0.87"/><circle class="cls-4" cx="2.72" cy="4.4" r="0.87"/><rect class="cls-5" x="12.23" y="3.7" width="1.81" height="4.09"/><rect class="cls-5" x="9.6" y="4.28" width="1.81" height="3.51"/><rect class="cls-5" x="7.01" y="4.8" width="1.81" height="2.99"/><rect class="cls-5" x="4.4" y="5.36" width="1.81" height="2.42"/><rect class="cls-5" x="1.8" y="5.93" width="1.81" height="1.86"/><path class="cls-5" d="M3.12,14.19l-.78-2.52h0c0,.06,0,.15,0,.27s0,.25,0,.38,0,.26,0,.37v1.5H1.76V11h.93l.76,2.46h0L4.27,11H5.2v3.22H4.56V12.67c0-.1,0-.22,0-.35s0-.26,0-.38v-.27h0l-.83,2.52Z"/><path class="cls-5" d="M8,14.19l-.24-.77H6.57l-.23.77H5.6L6.74,11h.83l1.14,3.23Zm-.4-1.34-.23-.75a1.45,1.45,0,0,1-.06-.19,2.17,2.17,0,0,1-.07-.24,1.15,1.15,0,0,1-.06-.21,2.18,2.18,0,0,0-.06.22c0,.09,0,.18-.08.25s0,.14,0,.17l-.23.75Z"/><path class="cls-5" d="M11,13.3a.88.88,0,0,1-.14.49.9.9,0,0,1-.41.33,1.53,1.53,0,0,1-.64.11,1.83,1.83,0,0,1-.33,0,1.45,1.45,0,0,1-.3-.06L8.92,14v-.63c.15.06.31.13.47.18a1.73,1.73,0,0,0,.49.08.7.7,0,0,0,.27,0,.31.31,0,0,0,.15-.12.37.37,0,0,0,0-.18.29.29,0,0,0-.09-.21A.83.83,0,0,0,10,13l-.32-.16-.24-.13a1.44,1.44,0,0,1-.25-.18,1.05,1.05,0,0,1-.2-.27A.89.89,0,0,1,9,11.84a.88.88,0,0,1,.13-.49A.81.81,0,0,1,9.46,11a1.34,1.34,0,0,1,.58-.11,1.86,1.86,0,0,1,.48.06,2.46,2.46,0,0,1,.48.16l-.22.53-.4-.14a1.49,1.49,0,0,0-.36,0,.51.51,0,0,0-.22,0,.24.24,0,0,0-.13.11.34.34,0,0,0-.05.17.25.25,0,0,0,.07.19.46.46,0,0,0,.2.15l.34.17a2.74,2.74,0,0,1,.42.25.82.82,0,0,1,.27.29A.94.94,0,0,1,11,13.3Z"/><path class="cls-5" d="M14.23,14.19h-.68V12.8H12.28v1.39H11.6V11h.68v1.26h1.27V11h.68Z"/></svg>