<svg id="Layer_1" data-name="Layer 1" xmlns="http://www.w3.org/2000/svg" viewBox="0 0 211.13 50.9"><defs><style>.cls-1{fill:#ea2d30;}</style></defs><path d="M74.27,45.61c1-1.07,2.31.09,1.54,1.29-4.4,6.78-12.77,1.74-13.72.55,0,0-9.61,7.16-16-1-3.67-4.7-1.3-8.66,1.13-10.77,1.83-1.59,4.06-2.1,7.54-2.7,4.22-.73,8.11-1.6,6-8.94-1.06-3.78-7.14-5.69-8.44.86-1.17,5.84-11.13.58-4.6-4.47,5.94-4.6,16.47-1.34,16.47-1.34,4.9,1.52,4.75,7.8,4.75,7.8V44.09C69.53,50.35,74.27,45.61,74.27,45.61ZM56.08,47.17c4.8.14,5.44-4.3,5.44-6.14,0-1.05,0-7.27,0-7.27C56,36.11,52.07,38,51.89,42,51.74,45.39,53.86,47.1,56.08,47.17Z"/><path d="M40.63,2.74l1,14.12c.13,1.68-2.5,1.93-2.87.61C37.85,14.26,35.57,8.31,32.7,6c-5.16-4.22-10-3.77-15.61.73-2.55,2-6.59,8.33-6.59,19,0,19.88,11.51,21,11.51,21C38.08,49.7,40.5,34.74,40.5,34.74h0c.56-1.94,3.5-1.26,2.88.71-2.17,6.88-4.62,10.8-11.54,14-7.16,3.29-16.78.06-17.76-.37C10.55,47.5,0,40.12,0,26.9,0,16.06,4.27,9.12,9.43,5.35,16.4.26,24.25-1.07,30.86.82a34.53,34.53,0,0,1,4.77,1.59,1.48,1.48,0,0,0,2.27-.86h0C38.73-.1,40.41.27,40.63,2.74Z"/><path d="M91.6,47.72a5.07,5.07,0,0,1-4.1-4.9l.06-13.59s-.91-7.29,8.15-7.29c3.31,0,4.85,3.9,4.65,5.51v16s.32,3.85-2.81,4.28c-2,.29-1.59,2-.12,2h14.32a1,1,0,0,0,.06-2h0c-3.31-.35-3.71-3.6-3.71-5.22l0-14.62h0c0-6-4-9.18-11-9.18-5.28,0-7.91,1.72-9.74,3.55,0,0-.36-1.75-.37-1.78-.31-1.41-.49-1.91-2.08-1.65L76.29,20c-1.59.44-1,1.59,0,1.9,2.43.71,3.62,2,3.62,4.71V42.4s.49,4.22-2.88,5.37c-1.84.63-1.11,2,0,2H91.17C92.89,49.74,93.11,48,91.6,47.72Z"/><path d="M174.46,38.72c0,9.57,3.67,8.88,3.67,8.88h0c1.33.06,1.57,1.66,0,1.9l-8.55,1.23c-2.47.55-2.72-2.46-2.72-2.46-12.21,6.74-19.77-2.76-19.77-2.76-2.32-2.2-3.82-5.79-3.82-10.38,0-7.93,2.85-11.83,8.53-14.91,7.68-4.15,15.18.8,15.18.8V9.33C167,6,165.7,5.1,165.7,5.1c-1.11-1.35-2.33-1.28-3.62-1.53s-1.55-1.65-.06-1.84l11.27-.61c1.54-.06,1.17,2.33,1.17,2.33ZM159.39,47.9c6.84.07,7.84-5.69,7.82-11.89,0-11.62-3.21-14.37-7.21-14.37-3.76,0-8.69,3-8.79,12.39C151.13,40.93,154.12,47.86,159.39,47.9Z"/><path d="M142.89,45.87c1-1.07,2.3.1,1.53,1.29-4.4,6.79-12.77,1.75-13.72.55,0,0-9.61,7.17-15.95-1-3.67-4.71-1.3-8.66,1.13-10.77,1.84-1.6,4.06-2.11,7.54-2.71,4.22-.72,8.12-1.59,6-8.93-1.06-3.78-7.14-5.69-8.45.86-1.16,5.84-11.11.57-4.59-4.47,5.94-4.6,16.47-1.35,16.47-1.35,4.9,1.53,4.76,7.81,4.76,7.81V44.36C138.14,50.62,142.89,45.87,142.89,45.87ZM124.7,47.44c4.79.14,5.44-4.31,5.44-6.15,0-1,0-7.27,0-7.27-5.55,2.36-9.47,4.29-9.65,8.2C120.34,45.66,122.48,47.37,124.7,47.44Z"/><path d="M209.36,45.85c1-1.07,2.31.09,1.53,1.29-4.39,6.79-12.77,1.75-13.72.55,0,0-9.6,7.17-15.94-.95-3.68-4.71-1.31-8.67,1.13-10.77,1.84-1.6,4-2.11,7.54-2.71,4.21-.73,8.11-1.59,6-8.93-1.07-3.78-7.14-5.69-8.45.85-1.17,5.84-11.12.58-4.6-4.46,5.95-4.6,16.48-1.35,16.48-1.35,4.9,1.53,4.75,7.81,4.75,7.81V44.33C204.62,50.6,209.36,45.85,209.36,45.85Zm-18.19,1.57c4.79.14,5.44-4.31,5.44-6.15,0-1.05,0-7.27,0-7.27-5.54,2.35-9.47,4.29-9.64,8.2C186.82,45.64,189,47.35,191.17,47.42Z"/><polyline class="cls-1" points="177.62 1.32 185.64 1.32 185.64 16.98 177.62 16.98"/><path class="cls-1" d="M187.83,9.12l-.43.22,2.72,2.18a.68.68,0,0,1,.26.4.52.52,0,0,1,0,.31l-.27.89,2.73-.49a.28.28,0,0,1,.29.1.52.52,0,0,1,.08.19l-.09,2.86h.74l-.09-2.85a.4.4,0,0,1,.1-.23.3.3,0,0,1,.25-.08l2.76.5-.3-1a.49.49,0,0,1,0-.37.48.48,0,0,1,.15-.22l2.81-2.23-.46-.23a.38.38,0,0,1-.16-.5l.48-1.74L198,7.18a.41.41,0,0,1-.35-.09.39.39,0,0,1-.12-.2l-.3-.67-1.5,1.55a.24.24,0,0,1-.3,0,.25.25,0,0,1-.13-.26L196,4.26l-1.11.62a.21.21,0,0,1-.15,0,.28.28,0,0,1-.17-.11l-1.1-2.08-1.09,2s-.06.1-.13.12a.23.23,0,0,1-.18,0l-1.13-.63.73,3.28a.31.31,0,0,1-.07.24.23.23,0,0,1-.33,0l-1.52-1.57-.32.76a.4.4,0,0,1-.23.2.38.38,0,0,1-.24,0l-1.41-.31.5,1.8a.49.49,0,0,1,0,.24A.44.44,0,0,1,187.83,9.12Z"/><polyline class="cls-1" points="209.3 1.32 201.28 1.32 201.28 16.98 209.3 16.98"/></svg>